<svg width="498" height="499" viewBox="0 0 498 499" fill="none" xmlns="http://www.w3.org/2000/svg">
<path fill-rule="evenodd" clip-rule="evenodd" d="M233.892 0.908619C188.027 4.30661 147.443 18.1217 110.058 43.0616C96.247 52.2746 86.985 60.0667 72.386 74.7496C43.467 103.839 22.617 138.413 11.427 175.835C10.193 179.96 8.81901 184.46 8.37201 185.835C7.64501 188.073 6.54602 193.139 3.27301 209.335C0.791009 221.617 -0.21499 247.428 1.04101 266.59C1.71701 276.9 2.73301 287.585 3.29801 290.335C3.86301 293.085 4.58401 296.685 4.90101 298.335C12.141 336.033 31.026 376.036 56.407 407.44C65.193 418.311 83.126 436.011 93.654 444.202C105.882 453.716 122.52 464.874 123.539 464.244C124.008 463.954 124.392 442.169 124.392 415.833V367.949L118.931 361.512C99.47 338.572 85.362 308.612 79.764 278.335C76.466 260.495 77.889 222.507 82.368 208.835C82.818 207.46 83.939 203.635 84.859 200.335C90.302 180.808 102.861 157.19 116.543 140.749C122.334 133.791 138.355 117.835 139.55 117.835C140.013 117.835 140.392 197.963 140.392 295.898V473.96L146.956 476.937C161.192 483.392 194.332 493.835 200.579 493.835C202.317 493.835 202.397 485.842 202.64 289.085L202.892 84.3346L209.784 82.6136C213.575 81.6666 217.062 81.1306 217.534 81.4226C218.007 81.7146 218.392 175.093 218.392 289.375V496.797L221.142 497.52C225.944 498.783 270.273 498.424 279.892 497.044C336.37 488.941 382.947 466.461 422.251 428.335C438.141 412.922 453.878 393.165 463.303 376.797C477.909 351.433 487.745 325.744 493.346 298.335C494.02 295.035 494.99 290.31 495.5 287.835C498.177 274.861 498.126 224.794 495.424 211.36C494.868 208.596 493.69 202.735 492.807 198.335C482.446 146.708 452.733 96.1815 412.489 61.7526C400.403 51.4126 377.139 34.8346 374.716 34.8346C373.636 34.8346 373.392 43.6527 373.392 82.7326V130.631L379.944 138.483C387.99 148.124 395.761 159.775 401.199 170.346C408.264 184.08 409.372 187.006 416.351 210.335C421.495 227.531 421.516 270.061 416.389 288.835C409.407 314.402 401.513 331.521 388.262 349.832C380.748 360.214 361.551 380.835 359.399 380.835C358.727 380.835 358.392 321.87 358.392 203.457C358.392 62.7489 358.134 25.8756 357.142 25.0916C352.514 21.4326 313.553 8.16161 299.642 5.50562L296.392 4.88462V209.411V413.937L292.911 415.392C290.996 416.192 287.283 416.956 284.661 417.091L279.892 417.335L279.646 212.835C279.51 100.36 279.398 6.92962 279.396 5.21362L279.392 2.09162L268.142 1.42362C261.955 1.05562 254.417 0.589619 251.392 0.387619C248.367 0.185619 240.492 0.41962 233.892 0.908619Z" fill="black"/>
</svg>
